<svg xmlns="http://www.w3.org/2000/svg" xmlns:xlink="http://www.w3.org/1999/xlink" width="36" height="44" viewBox="0 0 36 44">
    <defs>
        <path id="a" d="M35.985 5.922l6.843 6.843c.67.67 1.047 1.58 1.047 2.528V43.55c0 1.974-1.6 3.575-3.575 3.575H11.7a3.575 3.575 0 0 1-3.575-3.575V8.45c0-1.974 1.6-3.575 3.575-3.575h21.757c.948 0 1.857.377 2.528 1.047z"/>
    </defs>
    <g fill="none" fill-rule="evenodd">
        <g transform="translate(-8 -4)">
            <path d="M32.658 4.875a5.1 5.1 0 0 1 3.611 1.5l6.11 6.127a5.128 5.128 0 0 1 1.496 3.621V42.9a4.225 4.225 0 0 1-4.225 4.225h-27.3A4.225 4.225 0 0 1 8.125 42.9V9.1a4.225 4.225 0 0 1 4.225-4.225h20.308z"/>
            <mask id="b" fill="#fff">
                <use xlink:href="#a"/>
            </mask>
            <use fill="#5C67FF" xlink:href="#a"/>
            <g fill="#FFF" mask="url(#b)" opacity=".4">
                <path d="M34.125 3.25H45.5v11.375h-8.125a3.25 3.25 0 0 1-3.25-3.25V3.25z"/>
            </g>
        </g>
        <g fill="#FFF" fill-rule="nonzero">
            <path d="M9.694 14.778h16.612c.598 0 1.083.485 1.083 1.083v1.445c0 .598-.485 1.083-1.083 1.083H9.694a1.083 1.083 0 0 1-1.083-1.083V15.86c0-.598.485-1.083 1.083-1.083z"/>
            <g opacity=".5" transform="translate(8.611 20.917)">
                <rect width="18.778" height="2.889" y=".361" rx="1.444"/>
                <rect width="13" height="2.167" y="6.139" rx="1.083"/>
            </g>
        </g>
    </g>
</svg>
